<svg width="16" height="18" viewBox="0 0 16 18" fill="none" xmlns="http://www.w3.org/2000/svg">
<path d="M15.9999 12.0001V1.00009C15.9992 0.849884 15.9647 0.701765 15.8989 0.56673C15.8332 0.431696 15.7378 0.313216 15.6199 0.22009C15.5038 0.126111 15.368 0.059363 15.2226 0.0247523C15.0773 -0.00985829 14.926 -0.0114515 14.7799 0.0200896L5.77994 2.02009C5.55776 2.07019 5.35934 2.19464 5.2175 2.37285C5.07567 2.55105 4.99892 2.77233 4.99994 3.00009V11.3401C4.31727 11.0178 3.54851 10.9256 2.80897 11.0772C2.06944 11.2289 1.39902 11.6162 0.898279 12.1811C0.397539 12.7461 0.0934816 13.4582 0.0317216 14.2106C-0.0300385 14.9629 0.153829 15.7151 0.55574 16.3541C0.957651 16.9932 1.55593 17.4846 2.26084 17.7549C2.96574 18.0251 3.73926 18.0594 4.46534 17.8528C5.19143 17.6461 5.83094 17.2096 6.28792 16.6087C6.74491 16.0079 6.99474 15.275 6.99994 14.5201C7.01028 14.3469 7.01028 14.1733 6.99994 14.0001V3.80009L13.9999 2.25009V9.34009C13.3169 9.01761 12.5477 8.92544 11.8077 9.07743C11.0679 9.22941 10.3972 9.61734 9.8966 10.183C9.39597 10.7486 9.09236 11.4613 9.03137 12.2142C8.97037 12.9671 9.15528 13.7195 9.55833 14.3583C9.96137 14.9971 10.5608 15.4879 11.2666 15.757C11.9724 16.0262 12.7464 16.059 13.4725 15.8507C14.1985 15.6424 14.8374 15.2041 15.2931 14.6018C15.7489 13.9994 15.9969 13.2654 15.9999 12.5101C16.0094 12.3402 16.0094 12.17 15.9999 12.0001ZM3.53994 16.0001C3.25812 16 2.9821 15.92 2.74393 15.7693C2.50576 15.6187 2.3152 15.4035 2.19436 15.1489C2.07353 14.8943 2.02738 14.6107 2.06127 14.3309C2.09516 14.0511 2.20769 13.7867 2.38582 13.5683C2.56395 13.3499 2.80036 13.1865 3.06761 13.0971C3.33487 13.0077 3.62201 12.9959 3.8957 13.0631C4.16939 13.1303 4.41842 13.2737 4.61387 13.4767C4.80933 13.6797 4.9432 13.934 4.99994 14.2101C5.00977 14.3098 5.00977 14.4103 4.99994 14.5101C5.00002 14.9001 4.84716 15.2746 4.57419 15.5532C4.30121 15.8318 3.92989 15.9922 3.53994 16.0001ZM12.5399 14.0001C12.2552 14.0023 11.9757 13.9234 11.7341 13.7727C11.4926 13.6219 11.2989 13.4055 11.1758 13.1488C11.0526 12.892 11.0051 12.6055 11.0388 12.3228C11.0724 12.04 11.1859 11.7727 11.3659 11.552C11.5458 11.3314 11.7849 11.1665 12.0551 11.0767C12.3253 10.9869 12.6155 10.9758 12.8918 11.0449C13.1681 11.1139 13.419 11.2601 13.6152 11.4664C13.8114 11.6728 13.9449 11.9307 13.9999 12.2101C14.0098 12.3098 14.0098 12.4103 13.9999 12.5101C13.9973 12.9045 13.8395 13.2819 13.5606 13.5608C13.2818 13.8396 12.9043 13.9975 12.5099 14.0001H12.5399Z" fill="white"/>
</svg>
