<svg width="80" height="80" viewBox="0 0 80 80" fill="none" xmlns="http://www.w3.org/2000/svg">
<path d="M63.3328 50.0007V13.334C63.3305 12.8333 63.2154 12.3396 62.9961 11.8895C62.7769 11.4394 62.459 11.0444 62.0661 10.734C61.6789 10.4208 61.2264 10.1983 60.7418 10.0829C60.2573 9.96753 59.753 9.96221 59.2661 10.0674L29.2661 16.734C28.5255 16.901 27.8641 17.3159 27.3914 17.9099C26.9186 18.5039 26.6627 19.2415 26.6661 20.0007V47.8007C24.3906 46.7264 21.828 46.4189 19.3629 46.9244C16.8978 47.4299 14.6631 48.7211 12.9939 50.6042C11.3248 52.4874 10.3113 54.861 10.1054 57.3689C9.89955 59.8769 10.5124 62.384 11.8521 64.5141C13.1918 66.6442 15.1861 68.2825 17.5358 69.1832C19.8855 70.0839 22.4639 70.1985 24.8842 69.5097C27.3044 68.8208 29.4361 67.3658 30.9594 65.3629C32.4827 63.3599 33.3155 60.917 33.3328 58.4007C33.3673 57.8234 33.3673 57.2446 33.3328 56.6674V22.6674L56.6661 17.5007V41.134C54.3893 40.0591 51.8252 39.7519 49.3588 40.2585C46.8925 40.7651 44.6571 42.0582 42.9883 43.9436C41.3196 45.829 40.3075 48.2049 40.1042 50.7145C39.9009 53.2241 40.5173 55.7319 41.8608 57.8613C43.2043 59.9908 45.2023 61.6268 47.555 62.5239C49.9076 63.4209 52.4877 63.5304 54.9079 62.8361C57.3281 62.1417 59.4577 60.6808 60.9768 58.673C62.496 56.6651 63.3227 54.2185 63.3328 51.7007C63.3645 51.1345 63.3645 50.5669 63.3328 50.0007ZM21.7995 63.334C20.8601 63.3337 19.94 63.067 19.1461 62.5648C18.3522 62.0626 17.717 61.3455 17.3142 60.4969C16.9114 59.6482 16.7576 58.7027 16.8706 57.7701C16.9835 56.8375 17.3587 55.9561 17.9524 55.2281C18.5462 54.5002 19.3342 53.9555 20.2251 53.6574C21.1159 53.3593 22.073 53.3199 22.9853 53.5439C23.8977 53.7679 24.7277 54.246 25.3793 54.9228C26.0308 55.5995 26.477 56.4472 26.6661 57.3674C26.6989 57.6999 26.6989 58.0348 26.6661 58.3674C26.6664 59.6675 26.1569 60.9158 25.247 61.8444C24.3371 62.773 23.0993 63.3078 21.7995 63.334ZM51.7995 56.6674C50.8503 56.6748 49.9187 56.4118 49.1135 55.9093C48.3082 55.4068 47.6626 54.6855 47.2522 53.8297C46.8417 52.9739 46.6834 52.0189 46.7956 51.0764C46.9078 50.1338 47.286 49.2427 47.8859 48.5072C48.4858 47.7717 49.2827 47.2221 50.1834 46.9227C51.0842 46.6234 52.0515 46.5865 52.9724 46.8166C53.8932 47.0466 54.7296 47.534 55.3837 48.2219C56.0378 48.9097 56.4826 49.7694 56.6661 50.7007C56.6989 51.0332 56.6989 51.3682 56.6661 51.7007C56.6574 53.0152 56.1313 54.2735 55.2018 55.203C54.2722 56.1325 53.014 56.6586 51.6995 56.6674H51.7995Z" fill="#FE1170"/>
</svg>
