<svg width="80" height="80" viewBox="0 0 80 80" fill="none" xmlns="http://www.w3.org/2000/svg">
<path d="M56.6667 66.6667C56.6667 61.1439 49.2047 56.6667 40 56.6667C30.7953 56.6667 23.3333 61.1439 23.3333 66.6667M70 56.668C70 52.5674 65.8863 49.0432 60 47.5001M10 56.668C10 52.5674 14.1137 49.0432 20 47.5001M60 34.1204C62.0458 32.2894 63.3333 29.6284 63.3333 26.6667C63.3333 21.1439 58.8562 16.6667 53.3333 16.6667C50.7722 16.6667 48.4359 17.6296 46.6667 19.2131M20 34.1204C17.9542 32.2894 16.6667 29.6284 16.6667 26.6667C16.6667 21.1439 21.1438 16.6667 26.6667 16.6667C29.2278 16.6667 31.5641 17.6296 33.3333 19.2131M40 46.6667C34.4772 46.6667 30 42.1896 30 36.6667C30 31.1439 34.4772 26.6667 40 26.6667C45.5228 26.6667 50 31.1439 50 36.6667C50 42.1896 45.5228 46.6667 40 46.6667Z" stroke="#FE1170" stroke-width="6.66667" stroke-linecap="round" stroke-linejoin="round"/>
</svg>
