<svg width="22" height="18" viewBox="0 0 22 18" fill="none" xmlns="http://www.w3.org/2000/svg">
<path d="M17.82 1.68555C18.8191 2.61723 19.6167 3.74374 20.1636 4.99559C20.7105 6.24744 20.9952 7.59808 20.9999 8.96418C21.0047 10.3303 20.7295 11.6829 20.1914 12.9385C19.6532 14.1941 18.8635 15.3262 17.8709 16.2648M15.092 4.61096C15.6915 5.16997 16.17 5.84588 16.4982 6.59699C16.8263 7.3481 16.9971 8.15848 17 8.97814C17.0028 9.7978 16.8377 10.6094 16.5148 11.3627C16.1919 12.1161 15.7181 12.7953 15.1225 13.3585M6.4803 12.406L8.15553 14.4791C9.02883 15.5598 9.46547 16.1001 9.84803 16.1589C10.1792 16.2098 10.5138 16.0915 10.7394 15.8438C11 15.5576 11 14.8629 11 13.4734V4.52475C11 3.1353 11 2.44057 10.7394 2.15438C10.5138 1.90663 10.1792 1.78832 9.84803 1.83924C9.46547 1.89806 9.02883 2.43841 8.15553 3.51911L6.4803 5.59222C6.30388 5.81054 6.21567 5.9197 6.10652 5.99825C6.00982 6.06784 5.90147 6.11959 5.78656 6.15106C5.65687 6.18658 5.51652 6.18658 5.23583 6.18658H3.8125C3.0563 6.18658 2.6782 6.18658 2.37264 6.28753C1.77131 6.48618 1.2996 6.95789 1.10094 7.55922C1 7.86478 1 8.24288 1 8.99908C1 9.75528 1 10.1334 1.10094 10.4389C1.2996 11.0403 1.77131 11.512 2.37264 11.7106C2.6782 11.8116 3.0563 11.8116 3.8125 11.8116H5.23583C5.51652 11.8116 5.65687 11.8116 5.78656 11.8471C5.90147 11.8786 6.00982 11.9303 6.10652 11.9999C6.21567 12.0785 6.30388 12.1876 6.4803 12.406Z" stroke="white" stroke-width="2" stroke-linecap="round" stroke-linejoin="round"/>
</svg>
