<svg width="24" height="24" viewBox="0 0 24 24" fill="none" xmlns="http://www.w3.org/2000/svg">
<path d="M2 12.001C2 11.2448 2 10.8667 2.10094 10.5612C2.2996 9.95984 2.77131 9.48813 3.37264 9.28948C3.6782 9.18854 4.0563 9.18854 4.8125 9.18854H6.23583C6.51652 9.18854 6.65687 9.18854 6.78656 9.15301C6.90147 9.12154 7.00982 9.06979 7.10652 9.0002C7.21567 8.92165 7.30388 8.81249 7.4803 8.59417L9.15553 6.52107C10.0288 5.44036 10.4655 4.90001 10.848 4.84119C11.1792 4.79027 11.5138 4.90859 11.7394 5.15633C12 5.44253 12 6.13725 12 7.5267V16.4754C12 17.8648 12 18.5595 11.7394 18.8457C11.5138 19.0935 11.1792 19.2118 10.848 19.1609C10.4655 19.1021 10.0288 18.5617 9.15553 17.481L7.4803 15.4079C7.30388 15.1896 7.21567 15.0804 7.10652 15.0019C7.00982 14.9323 6.90147 14.8805 6.78656 14.8491C6.65687 14.8135 6.51652 14.8135 6.23583 14.8135H4.8125C4.0563 14.8135 3.6782 14.8135 3.37264 14.7126C2.77131 14.5139 2.2996 14.0422 2.10094 13.4409C2 13.1353 2 12.7572 2 12.001Z" fill="#FE1170"/>
<path d="M18.82 4.6875C19.8191 5.61918 20.6167 6.7457 21.1636 7.99755C21.7105 9.2494 21.9952 10.6 21.9999 11.9661C22.0047 13.3322 21.7295 14.6848 21.1914 15.9405C20.6532 17.1961 19.8635 18.3281 18.8709 19.2668M16.092 7.61291C16.6915 8.17192 17.17 8.84783 17.4982 9.59894C17.8263 10.3501 17.9971 11.1604 18 11.9801C18.0028 12.7998 17.8377 13.6113 17.5148 14.3647C17.1919 15.1181 16.7181 15.7973 16.1225 16.3605M7.4803 15.4079L9.15553 17.481C10.0288 18.5617 10.4655 19.1021 10.848 19.1609C11.1792 19.2118 11.5138 19.0935 11.7394 18.8457C12 18.5595 12 17.8648 12 16.4754V7.5267C12 6.13725 12 5.44253 11.7394 5.15633C11.5138 4.90859 11.1792 4.79027 10.848 4.84119C10.4655 4.90001 10.0288 5.44036 9.15553 6.52107L7.4803 8.59417C7.30388 8.81249 7.21567 8.92165 7.10652 9.0002C7.00982 9.06979 6.90147 9.12154 6.78656 9.15301C6.65687 9.18854 6.51652 9.18854 6.23583 9.18854H4.8125C4.0563 9.18854 3.6782 9.18854 3.37264 9.28948C2.77131 9.48813 2.2996 9.95984 2.10094 10.5612C2 10.8667 2 11.2448 2 12.001C2 12.7572 2 13.1353 2.10094 13.4409C2.2996 14.0422 2.77131 14.5139 3.37264 14.7126C3.6782 14.8135 4.0563 14.8135 4.8125 14.8135H6.23583C6.51652 14.8135 6.65687 14.8135 6.78656 14.8491C6.90147 14.8805 7.00982 14.9323 7.10652 15.0019C7.21567 15.0804 7.30388 15.1896 7.4803 15.4079Z" stroke="#FE1170" stroke-width="2" stroke-linecap="round" stroke-linejoin="round"/>
</svg>
